<?xml version="1.0" encoding="UTF-8"?>
<svg id="Layer_1" data-name="Layer 1" xmlns="http://www.w3.org/2000/svg" viewBox="0 0 960 960">
  <defs>
    <style>
      .cls-1 {
        fill: #293331;
      }

      .cls-1, .cls-2 {
        stroke-width: 0px;
      }

      .cls-2 {
        fill: #13bf95;
      }
    </style>
  </defs>
  <g id="semgrep-ellipsis">
    <path class="cls-2" d="M280.66,420.61c26.05,0,47.17,21.12,47.17,47.17s-21.12,47.17-47.17,47.17-47.17-21.12-47.17-47.17c0-10.73,3.66-21.15,10.38-29.52,2.73,3.14,3.72,5,6.6,9.71h1.65c-1.46-3.6-3.6-7.11-6.49-11.77,8.94-9.92,21.68-15.58,35.03-15.59h0ZM280.66,441.36c-14.59,0-26.42,11.83-26.42,26.42s11.83,26.42,26.42,26.42,26.42-11.83,26.42-26.42-11.83-26.42-26.42-26.42Z"/>
    <path class="cls-2" d="M207.07,420.61c-26.05,0-47.17,21.12-47.17,47.17,0,10.73,3.66,21.13,10.38,29.5.02-.02.03-.04.05-.07,0,0,.01.01.02.02.45-.57.89-1.15,1.31-1.74,1.98-2.59,3.35-4.77,4.68-8.06.12-.26.24-.52.36-.79h1.59c-.34,1.41-.82,2.79-1.41,4.19-1.32,2.83-2.96,5.84-4.62,8.54-.03.04-.05.08-.07.13,8.94,9.83,21.6,15.44,34.89,15.44,13.28,0,25.95-5.61,34.89-15.44-.03-.04-.05-.08-.07-.13-1.67-2.7-3.3-5.71-4.62-8.54-.59-1.4-1.07-2.78-1.41-4.19h1.59c.12.26.24.53.36.79,1.33,3.29,2.7,5.46,4.68,8.06.43.59.86,1.17,1.31,1.74,0,0,.01-.01.02-.02.02.02.03.04.05.07,6.71-8.37,10.37-18.77,10.38-29.5,0-26.05-21.12-47.17-47.17-47.17ZM207.07,441.36c14.59,0,26.42,11.83,26.42,26.42s-11.83,26.42-26.42,26.42-26.42-11.83-26.42-26.42c0-.46.01-.91.03-1.36.71-13.96,12.25-25.06,26.38-25.06Z"/>
    <path class="cls-2" d="M133.48,420.61c-26.05,0-47.17,21.12-47.17,47.17s21.12,47.17,47.17,47.17,47.17-21.12,47.17-47.17c0-10.73-3.66-21.15-10.38-29.52-2.73,3.14-3.72,5-6.6,9.71h-1.65c1.46-3.6,3.6-7.11,6.49-11.77-8.94-9.92-21.67-15.58-35.03-15.59h0ZM133.48,441.36c14.59,0,26.42,11.83,26.42,26.42s-11.83,26.42-26.42,26.42-26.42-11.83-26.42-26.42,11.83-26.42,26.42-26.42Z"/>
  </g>
  <g id="semgrep-letters">
    <path id="s" class="cls-1" d="M397.43,512.35c-4.85,0-9.33-.62-13.44-1.85-4.11-1.32-7.81-3.21-11.09-5.67-3.29-2.55-6.2-5.67-8.75-9.37l9.74-11.1c4.03,5.67,7.93,9.62,11.71,11.84,3.78,2.14,8.18,3.21,13.19,3.21,2.96,0,5.63-.45,8.01-1.36,2.38-.9,4.27-2.18,5.67-3.82,1.4-1.64,2.1-3.49,2.1-5.55,0-1.48-.25-2.84-.74-4.07-.49-1.32-1.27-2.47-2.34-3.45-1.07-.99-2.38-1.89-3.94-2.71-1.56-.9-3.37-1.69-5.42-2.34-2.05-.66-4.4-1.19-7.03-1.6-4.44-.99-8.34-2.22-11.71-3.7-3.29-1.48-6.08-3.33-8.38-5.55-2.22-2.22-3.86-4.77-4.93-7.65-1.07-2.88-1.6-6.08-1.6-9.62s.78-6.78,2.34-9.74c1.56-3.04,3.7-5.67,6.41-7.89,2.71-2.22,5.92-3.9,9.61-5.06,3.7-1.23,7.64-1.85,11.83-1.85,4.68,0,8.88.58,12.57,1.73,3.78,1.15,7.11,2.88,9.98,5.18,2.88,2.22,5.3,4.97,7.27,8.26l-9.98,9.74c-1.73-2.63-3.62-4.81-5.67-6.54-1.97-1.81-4.19-3.17-6.66-4.07-2.47-.9-5.05-1.36-7.77-1.36-3.04,0-5.71.49-8.01,1.48-2.22.9-3.99,2.18-5.3,3.82-1.31,1.64-1.97,3.58-1.97,5.8,0,1.64.33,3.17.99,4.56.74,1.32,1.77,2.51,3.08,3.58,1.4,1.07,3.2,2.01,5.42,2.84,2.22.82,4.81,1.52,7.77,2.1,4.52.99,8.55,2.26,12.08,3.82,3.62,1.48,6.66,3.25,9.12,5.3,2.55,2.06,4.44,4.4,5.67,7.03,1.31,2.63,1.97,5.47,1.97,8.51,0,5.59-1.31,10.44-3.94,14.55-2.55,4.03-6.2,7.15-10.97,9.37-4.77,2.14-10.4,3.21-16.89,3.21h0Z"/>
    <path id="e1" class="cls-1" d="M471.12,512.35c-6.74,0-12.7-1.4-17.87-4.19-5.18-2.88-9.24-6.78-12.2-11.72-2.88-5.01-4.31-10.73-4.31-17.14,0-5.1.82-9.74,2.47-13.93s3.9-7.81,6.78-10.85c2.96-3.12,6.45-5.51,10.48-7.15,4.11-1.73,8.55-2.59,13.31-2.59,4.27,0,8.22.82,11.83,2.47,3.7,1.56,6.9,3.78,9.61,6.66,2.71,2.8,4.77,6.12,6.16,9.99,1.48,3.86,2.18,8.06,2.1,12.58l-.12,5.43h-52.75l-2.84-10.24h43.64l-1.85,2.1v-2.84c-.25-2.63-1.11-4.93-2.59-6.91-1.48-2.06-3.37-3.66-5.67-4.81-2.22-1.23-4.68-1.85-7.4-1.85-4.27,0-7.85.82-10.72,2.47-2.88,1.56-5.09,3.91-6.66,7.03-1.48,3.12-2.22,6.95-2.22,11.47,0,4.36.9,8.14,2.71,11.35,1.89,3.21,4.52,5.71,7.89,7.52,3.37,1.73,7.27,2.59,11.71,2.59,3.12,0,6-.49,8.63-1.48,2.63-1.07,5.51-2.92,8.63-5.55l6.9,9.74c-2.05,1.97-4.52,3.7-7.4,5.18-2.88,1.48-5.88,2.63-9,3.45-3.12.82-6.2,1.23-9.24,1.23h0Z"/>
    <path id="m" class="cls-1" d="M510.51,511.12v-64.86h13.93v13.44l-2.34,1.23c.74-2.14,1.81-4.15,3.2-6.04,1.48-1.89,3.25-3.58,5.3-5.06,2.05-1.48,4.27-2.63,6.66-3.45,2.38-.82,4.81-1.23,7.27-1.23,3.62,0,6.78.62,9.49,1.85,2.79,1.15,5.1,2.92,6.9,5.3,1.89,2.38,3.29,5.43,4.19,9.13l-2.22-.37.86-2.1c.99-1.89,2.26-3.66,3.82-5.3,1.64-1.73,3.49-3.21,5.55-4.44,2.05-1.32,4.23-2.3,6.53-2.96,2.3-.74,4.52-1.11,6.66-1.11,4.93,0,9,.99,12.2,2.96,3.2,1.97,5.63,4.97,7.27,9,1.64,4.03,2.47,9,2.47,14.92v39.09h-14.05v-38.1c0-3.53-.45-6.41-1.36-8.63-.9-2.22-2.26-3.86-4.07-4.93-1.81-1.15-4.15-1.73-7.03-1.73-2.14,0-4.19.37-6.16,1.11-1.89.74-3.53,1.77-4.93,3.08-1.4,1.32-2.51,2.88-3.33,4.69-.74,1.73-1.11,3.66-1.11,5.8v38.72h-14.05v-38.35c0-3.21-.49-5.92-1.48-8.14-.9-2.3-2.26-4.03-4.07-5.18-1.81-1.15-4.03-1.73-6.66-1.73-2.14,0-4.15.37-6.04,1.11-1.89.74-3.53,1.77-4.93,3.08-1.4,1.23-2.51,2.75-3.33,4.56-.74,1.73-1.11,3.62-1.11,5.67v38.97h-14.05Z"/>
    <path id="g" class="cls-1" d="M651.96,539.48c-4.68,0-9.37-.74-14.05-2.22-4.68-1.48-8.51-3.37-11.46-5.67l5.18-10.61c1.64,1.23,3.53,2.3,5.67,3.21,2.22.99,4.52,1.73,6.9,2.22,2.47.58,4.93.86,7.4.86,4.44,0,8.14-.74,11.09-2.22,2.96-1.4,5.18-3.53,6.66-6.41,1.56-2.8,2.34-6.29,2.34-10.48v-12.09l1.73.74c-.41,2.63-1.77,5.1-4.07,7.4-2.22,2.3-5.01,4.19-8.38,5.67-3.37,1.4-6.82,2.1-10.35,2.1-6.08,0-11.55-1.44-16.39-4.32-4.77-2.88-8.55-6.82-11.34-11.84-2.71-5.01-4.07-10.77-4.07-17.26s1.36-12.25,4.07-17.26c2.71-5.1,6.45-9.08,11.22-11.96,4.77-2.96,10.15-4.44,16.15-4.44,2.47,0,4.85.33,7.15.99,2.3.58,4.44,1.4,6.41,2.47,1.97,1.07,3.7,2.26,5.18,3.58,1.56,1.32,2.84,2.71,3.82,4.19.99,1.48,1.6,2.88,1.85,4.19l-2.84.99.12-15.04h13.68v60.67c0,5.18-.78,9.78-2.34,13.81-1.48,4.03-3.7,7.44-6.66,10.24-2.88,2.8-6.41,4.89-10.6,6.29-4.11,1.48-8.79,2.22-14.05,2.22h0ZM652.45,499.65c3.86,0,7.27-.9,10.23-2.71,3.04-1.81,5.38-4.27,7.03-7.4,1.64-3.12,2.47-6.78,2.47-10.98s-.86-7.77-2.59-10.98c-1.64-3.21-3.94-5.71-6.9-7.52-2.96-1.81-6.37-2.71-10.23-2.71s-7.15.95-10.11,2.84c-2.96,1.81-5.26,4.32-6.9,7.52-1.64,3.21-2.47,6.82-2.47,10.85s.82,7.77,2.47,10.98c1.64,3.12,3.94,5.59,6.9,7.4,2.96,1.81,6.33,2.71,10.11,2.71h0Z"/>
    <path id="r" class="cls-1" d="M698.52,511.12v-64.86h13.81l.25,20.47-1.73-4.69c.9-3.21,2.47-6.08,4.68-8.63,2.22-2.63,4.77-4.69,7.64-6.17,2.88-1.56,5.83-2.34,8.87-2.34,1.4,0,2.75.12,4.07.37,1.31.25,2.34.53,3.08.86l-3.7,15.17c-.99-.41-2.1-.74-3.33-.99-1.23-.33-2.47-.49-3.7-.49-2.14,0-4.19.41-6.16,1.23-1.89.82-3.57,1.97-5.05,3.45-1.4,1.4-2.55,3.08-3.45,5.06-.82,1.89-1.23,3.99-1.23,6.29v35.27h-14.05Z"/>
    <path id="e2" class="cls-1" d="M772.3,512.35c-6.74,0-12.7-1.4-17.87-4.19-5.18-2.88-9.24-6.78-12.2-11.72-2.88-5.01-4.31-10.73-4.31-17.14,0-5.1.82-9.74,2.47-13.93s3.9-7.81,6.78-10.85c2.96-3.12,6.45-5.51,10.48-7.15,4.11-1.73,8.55-2.59,13.31-2.59,4.27,0,8.22.82,11.83,2.47,3.7,1.56,6.9,3.78,9.61,6.66,2.71,2.8,4.77,6.12,6.16,9.99,1.48,3.86,2.18,8.06,2.1,12.58l-.12,5.43h-52.75l-2.84-10.24h43.64l-1.85,2.1v-2.84c-.25-2.63-1.11-4.93-2.59-6.91-1.48-2.06-3.37-3.66-5.67-4.81-2.22-1.23-4.68-1.85-7.4-1.85-4.27,0-7.85.82-10.72,2.47-2.88,1.56-5.1,3.91-6.66,7.03-1.48,3.12-2.22,6.95-2.22,11.47s.9,8.14,2.71,11.35c1.89,3.21,4.52,5.71,7.89,7.52,3.37,1.73,7.27,2.59,11.71,2.59,3.12,0,6-.49,8.63-1.48,2.63-1.07,5.51-2.92,8.63-5.55l6.9,9.74c-2.05,1.97-4.52,3.7-7.4,5.18-2.88,1.48-5.88,2.63-9,3.45-3.12.82-6.2,1.23-9.24,1.23h0Z"/>
    <path id="p" class="cls-1" d="M809.38,538.24v-91.99h13.81l.12,14.8-2.22-1.11c.49-2.55,1.89-4.93,4.19-7.15,2.3-2.3,5.09-4.15,8.38-5.55,3.37-1.4,6.86-2.1,10.48-2.1,5.75,0,10.85,1.44,15.29,4.32,4.52,2.88,8.09,6.82,10.72,11.84,2.63,5.01,3.94,10.77,3.94,17.26s-1.31,12.29-3.94,17.39c-2.55,5.01-6.08,9-10.6,11.96-4.44,2.88-9.49,4.32-15.16,4.32-3.78,0-7.44-.74-10.97-2.22-3.45-1.48-6.41-3.41-8.87-5.8-2.47-2.38-3.99-4.89-4.56-7.52l3.45-1.73v43.28h-14.05ZM841.8,499.65c3.62,0,6.82-.9,9.61-2.71,2.88-1.81,5.14-4.27,6.78-7.4,1.64-3.21,2.47-6.86,2.47-10.98s-.82-7.6-2.47-10.73c-1.56-3.12-3.78-5.59-6.66-7.4-2.79-1.81-6.04-2.71-9.74-2.71s-6.98.9-9.86,2.71c-2.79,1.73-5.01,4.19-6.66,7.4-1.64,3.12-2.47,6.7-2.47,10.73s.82,7.77,2.47,10.98c1.64,3.12,3.86,5.59,6.66,7.4,2.88,1.81,6.16,2.71,9.86,2.71Z"/>
  </g>
</svg>