<svg viewBox="0 0 90 90" xmlns="http://www.w3.org/2000/svg"><g fill="none" fill-rule="evenodd"><path fill="#FFF" d="M0 0h90v90H0z"/><path d="M34.229 10C17.923 9.977 3.873 21.416.669 37.32c-3.203 15.903 5.334 31.843 20.39 38.07 15.055 6.228 32.437 1.01 41.514-12.465 9.077-13.474 7.322-31.45-4.192-42.935A34.252 34.252 0 0 0 34.23 10Zm0 54.711c-14.022 0-20.297-12.204-20.297-20.835 0-8.63 6.345-20.817 20.297-20.817 14.74 0 20.279 12.937 20.279 21.079 0 8.49-6.31 20.573-20.28 20.573Zm41.907 11.926V24.332H65.778V11.255H90v65.382H76.136Z" fill="#00B2E5" fill-rule="nonzero"/></g></svg>